<svg xmlns="http://www.w3.org/2000/svg" viewBox="0 0 744 1039">
  <defs><linearGradient id="bg" x1="0" x2="0" y1="0" y2="1"><stop offset="0" stop-color="#efe8c9"/><stop offset="1" stop-color="#d9cb98"/></linearGradient><linearGradient id="bar" x1="0" x2="1"><stop offset="0" stop-color="#8b7a34"/><stop offset="1" stop-color="#625523"/></linearGradient></defs>
  <rect x="12" y="12" width="720" height="1015" rx="36" fill="url(#bg)" stroke="#625523" stroke-width="10"/>
  <rect x="34" y="34" width="676" height="971" rx="24" fill="none" stroke="#776a2d" stroke-width="3"/>
  <polygon points="54,54 144,54 170,90 144,126 54,126 28,90" fill="#5e5b26" stroke="#fff6d9" stroke-width="4"/>
  <rect x="186" y="54" width="360" height="72" rx="14" fill="url(#bar)"/>
  <rect x="560" y="54" width="140" height="72" rx="22" fill="#625523" stroke="#fff6d9" stroke-width="3"/>
  <rect x="56" y="244" width="286" height="400" rx="18" fill="rgba(255,255,255,0.22)" stroke="#776a2d" stroke-width="3"/>
  <rect x="364" y="244" width="324" height="402" rx="18" fill="#d3c48a" stroke="#776a2d" stroke-width="3"/>
  <rect x="58" y="664" width="180" height="48" rx="18" fill="url(#bar)"/>
  <rect x="58" y="936" width="628" height="54" rx="20" fill="#625523" stroke="#fff6d9" stroke-width="3"/>
  <path d="M640 210 l20 26 l-20 24 l-22 -24z" fill="#b49b52" opacity=".38"/>
</svg>
